<?xml version="1.0" standalone="no"?>
<!DOCTYPE svg PUBLIC "-//W3C//DTD SVG 20010904//EN"
 "http://www.w3.org/TR/2001/REC-SVG-20010904/DTD/svg10.dtd">
<svg version="1.0" xmlns="http://www.w3.org/2000/svg"
 width="626.000000pt" height="626.000000pt" viewBox="0 0 626.000000 626.000000"
 preserveAspectRatio="xMidYMid meet">
<metadata>
Created by potrace 1.14, written by Peter Selinger 2001-2017
</metadata>
<g transform="translate(0.000000,626.000000) scale(0.100000,-0.100000)"
fill="#000000" stroke="none">
<path d="M2569 6228 c-5 -66 19 -207 32 -186 8 13 4 60 -12 146 -10 50 -18 66
-20 40z"/>
<path d="M2665 6188 c2 -7 6 -33 9 -57 7 -57 16 -65 16 -15 0 47 -9 84 -21 84
-5 0 -7 -6 -4 -12z"/>
<path d="M3277 6179 c4 -13 8 -18 11 -10 2 7 -1 18 -6 23 -8 8 -9 4 -5 -13z"/>
<path d="M3282 6130 c0 -14 2 -19 5 -12 2 6 2 18 0 25 -3 6 -5 1 -5 -13z"/>
<path d="M3366 6114 c-8 -20 -8 -24 2 -24 4 0 8 9 9 20 2 24 -3 26 -11 4z"/>
<path d="M3987 6088 c-33 -77 -39 -95 -43 -138 -5 -43 -4 -42 24 30 42 107 51
140 42 140 -5 0 -15 -15 -23 -32z"/>
<path d="M1986 6080 c8 -43 43 -142 55 -154 12 -13 4 24 -22 103 -24 75 -43
103 -33 51z"/>
<path d="M1860 6085 c0 -12 24 -55 32 -55 11 0 10 17 -2 41 -9 17 -30 27 -30
14z"/>
<path d="M4073 6008 c-40 -95 -56 -148 -49 -155 3 -3 14 14 24 38 26 60 64
180 59 185 -2 3 -18 -28 -34 -68z"/>
<path d="M1913 5963 c9 -45 26 -83 37 -83 14 0 13 12 -10 64 -22 51 -35 61
-27 19z"/>
<path d="M3244 5919 c-4 -7 -9 -36 -9 -64 -1 -32 -6 -49 -13 -47 -7 1 -13 -10
-13 -25 -1 -16 -2 -45 -3 -66 -1 -20 4 -50 10 -65 l12 -27 12 34 13 33 12 -30
c26 -60 52 -52 66 20 15 80 22 201 11 194 -6 -3 -13 -2 -17 4 -15 25 -25 -7
-26 -83 0 -64 -2 -77 -10 -57 -5 13 -12 56 -15 95 -7 79 -16 106 -30 84z"/>
<path d="M2617 5908 c-6 -16 -1 -150 8 -198 9 -55 15 -70 29 -70 23 0 6 249
-18 270 -10 8 -15 7 -19 -2z"/>
<path d="M2916 5768 c3 -116 6 -139 21 -125 14 15 0 232 -17 242 -3 2 -5 -50
-4 -117z"/>
<path d="M2979 5849 c-2 -59 1 -133 6 -138 5 -4 8 53 7 127 -1 45 -12 54 -13
11z"/>
<path d="M2375 5845 c2 -11 4 -24 4 -28 1 -5 5 -6 10 -3 10 6 18 -32 29 -134
4 -36 11 -70 15 -77 17 -26 67 6 67 44 0 39 -31 166 -46 191 -13 20 -56 32
-53 15 4 -22 -3 -25 -15 -7 -15 19 -15 19 -11 -1z"/>
<path d="M3448 5844 c-6 -11 -4 -72 4 -79 9 -9 15 50 8 71 -4 10 -9 13 -12 8z"/>
<path d="M3747 5809 c-17 -27 -67 -202 -67 -236 0 -13 4 -23 10 -23 18 0 39
44 60 126 29 113 31 125 21 142 -7 13 -11 11 -24 -9z"/>
<path d="M2260 5788 c0 -21 -4 -38 -9 -38 -15 0 28 -143 46 -157 24 -19 33
-16 33 11 0 36 -20 86 -35 86 -10 0 -13 11 -10 36 1 20 -3 50 -11 68 l-13 31
-1 -37z"/>
<path d="M3092 5795 c0 -16 2 -22 5 -12 2 9 2 23 0 30 -3 6 -5 -1 -5 -18z"/>
<path d="M3501 5788 c-23 -72 -37 -183 -22 -174 14 9 50 206 37 206 -3 0 -9
-15 -15 -32z"/>
<path d="M3596 5811 c-10 -16 -19 -106 -10 -98 8 8 11 18 20 75 6 31 1 41 -10
23z"/>
<path d="M4641 5749 c-42 -66 -57 -115 -21 -69 29 38 73 121 66 127 -3 3 -23
-23 -45 -58z"/>
<path d="M3665 5778 c-14 -60 -22 -118 -15 -118 6 0 40 108 40 130 0 19 -20
10 -25 -12z"/>
<path d="M2080 5783 c0 -21 22 -73 31 -73 5 0 2 17 -6 37 -17 40 -25 52 -25
36z"/>
<path d="M2180 5766 c0 -14 5 -28 10 -31 6 -3 10 5 10 19 0 14 -4 28 -10 31
-6 3 -10 -5 -10 -19z"/>
<path d="M2337 5775 c-4 -8 -2 -17 3 -20 6 -4 10 3 10 14 0 25 -6 27 -13 6z"/>
<path d="M3086 5745 c4 -8 8 -15 10 -15 2 0 4 7 4 15 0 8 -4 15 -10 15 -5 0
-7 -7 -4 -15z"/>
<path d="M2010 5724 c0 -12 9 -32 20 -45 19 -24 19 -24 20 -3 0 12 -9 32 -20
45 -19 24 -19 24 -20 3z"/>
<path d="M4056 5670 c-19 -47 -21 -73 -5 -68 6 2 11 8 11 13 0 6 3 15 8 20 13
17 22 75 12 75 -5 0 -17 -18 -26 -40z"/>
<path d="M2356 5685 c-3 -8 -1 -17 3 -20 5 -3 11 2 15 10 3 8 1 17 -3 20 -5 3
-11 -2 -15 -10z"/>
<path d="M3420 5665 c0 -19 5 -35 10 -35 6 0 10 16 8 35 -1 19 -6 35 -10 35
-4 0 -8 -16 -8 -35z"/>
<path d="M4687 5625 c-41 -59 -47 -78 -17 -50 11 10 20 22 20 27 0 5 10 22 22
38 12 16 20 32 17 34 -2 3 -21 -19 -42 -49z"/>
<path d="M4087 5613 c-14 -29 -21 -53 -16 -53 12 0 51 79 46 93 -2 7 -16 -12
-30 -40z"/>
<path d="M1764 5625 c10 -40 76 -172 96 -190 9 -8 25 -12 37 -9 21 6 20 10
-28 105 -35 68 -56 99 -68 99 -9 0 -23 6 -30 13 -11 10 -12 7 -7 -18z m89
-117 c4 -10 4 -18 2 -18 -6 0 -35 56 -35 67 0 10 25 -27 33 -49z"/>
<path d="M4194 5608 c-9 -18 -20 -35 -25 -38 -11 -8 -24 -64 -12 -57 14 9 67
117 60 123 -3 3 -13 -9 -23 -28z"/>
<path d="M2060 5611 c0 -28 21 -84 37 -101 14 -13 15 -10 8 25 -7 38 -31 95
-40 95 -3 0 -5 -8 -5 -19z"/>
<path d="M3550 5615 c0 -8 4 -15 8 -15 5 0 9 7 9 15 0 8 -4 15 -9 15 -4 0 -8
-7 -8 -15z"/>
<path d="M2230 5604 c0 -11 7 -29 15 -40 14 -19 14 -19 15 2 0 11 -7 29 -15
40 -14 19 -14 19 -15 -2z"/>
<path d="M2150 5579 c0 -8 7 -24 15 -35 11 -15 14 -16 15 -3 0 8 -7 24 -15 35
-11 15 -14 16 -15 3z"/>
<path d="M1686 5491 c54 -101 71 -127 79 -119 13 13 -97 208 -117 208 -5 0 12
-40 38 -89z"/>
<path d="M4012 5545 c-18 -22 -21 -55 -5 -55 7 0 35 72 30 77 -3 2 -14 -8 -25
-22z"/>
<path d="M4253 5558 c-29 -48 -83 -162 -83 -176 1 -16 57 85 87 156 13 32 11
43 -4 20z"/>
<path d="M4282 5468 c-50 -100 -67 -143 -38 -102 26 37 97 185 94 195 -2 5
-27 -37 -56 -93z"/>
<path d="M1545 5537 c-8 -30 6 -65 59 -147 54 -83 76 -98 101 -70 10 11 24 20
32 20 18 0 0 44 -51 123 -37 58 -59 74 -49 36 9 -32 -19 -19 -36 17 -23 48
-47 57 -56 21z m133 -110 c6 -6 13 -26 17 -42 l7 -30 -21 25 c-22 27 -34 60
-21 60 4 0 12 -6 18 -13z"/>
<path d="M4392 5548 c-20 -25 -73 -132 -91 -186 -20 -59 -14 -76 35 -88 51
-13 64 10 39 68 -6 15 -3 17 22 12 26 -5 31 -2 42 24 8 18 10 44 6 62 -7 30
-6 31 13 21 16 -9 24 -7 36 5 17 17 21 34 8 34 -4 0 -13 -5 -18 -10 -7 -7 -18
1 -35 27 -27 42 -41 49 -57 31z m30 -144 c-2 -10 -6 -21 -8 -24 -9 -8 -22 23
-17 37 8 20 29 9 25 -13z"/>
<path d="M3212 5538 c-25 -32 -39 -280 -16 -299 8 -6 14 -9 14 -5 0 3 11 1 24
-4 49 -18 60 10 72 185 3 44 7 82 9 85 6 10 -13 35 -21 28 -3 -4 -6 -25 -6
-48 1 -51 -8 -46 -33 19 -20 54 -26 59 -43 39z"/>
<path d="M5006 5506 c-43 -45 -93 -126 -79 -126 15 0 108 107 137 158 17 29
-20 9 -58 -32z"/>
<path d="M4032 5485 c-14 -31 -15 -35 -4 -35 8 0 32 43 32 55 0 15 -19 1 -28
-20z"/>
<path d="M2535 5449 c5 -66 22 -146 36 -168 22 -35 -5 143 -30 199 -9 21 -10
16 -6 -31z"/>
<path d="M1526 5470 c8 -28 106 -191 112 -185 6 6 -31 77 -76 145 -24 36 -40
54 -36 40z"/>
<path d="M3434 5428 c-7 -49 -8 -98 -4 -115 3 -13 29 110 30 140 0 48 -19 29
-26 -25z"/>
<path d="M1410 5465 c0 -11 87 -146 119 -185 40 -49 20 -8 -40 83 -68 102 -79
116 -79 102z"/>
<path d="M4121 5448 c-7 -15 -11 -32 -9 -39 6 -19 30 26 26 48 -2 12 -6 10
-17 -9z"/>
<path d="M3085 5440 c-3 -5 -1 -10 4 -10 6 0 11 5 11 10 0 6 -2 10 -4 10 -3 0
-8 -4 -11 -10z"/>
<path d="M3663 5443 c-13 -5 -57 -133 -67 -196 -5 -32 -3 -38 10 -35 14 2 54
91 55 118 0 3 4 22 10 43 12 46 9 75 -8 70z"/>
<path d="M2420 5426 c0 -9 5 -16 10 -16 6 0 10 4 10 9 0 6 -4 13 -10 16 -5 3
-10 -1 -10 -9z"/>
<path d="M2942 5420 c0 -14 2 -19 5 -12 2 6 2 18 0 25 -3 6 -5 1 -5 -13z"/>
<path d="M2999 5436 c-4 -4 -3 -110 1 -141 4 -32 17 39 15 83 -2 51 -7 67 -16
58z"/>
<path d="M3093 5385 c0 -22 2 -30 4 -17 2 12 2 30 0 40 -3 9 -5 -1 -4 -23z"/>
<path d="M2942 5370 c0 -14 2 -19 5 -12 2 6 2 18 0 25 -3 6 -5 1 -5 -13z"/>
<path d="M2450 5343 c0 -10 6 -44 14 -76 17 -73 38 -99 25 -32 -18 97 -39 156
-39 108z"/>
<path d="M4518 5343 c-21 -26 -79 -123 -72 -123 10 0 29 24 62 79 33 53 38 77
10 44z"/>
<path d="M5232 5262 c-37 -37 -76 -78 -87 -91 l-20 -24 20 11 c29 15 175 172
161 172 -4 0 -37 -30 -74 -68z"/>
<path d="M1248 5305 c12 -24 70 -80 76 -74 6 5 -12 27 -53 64 -24 21 -31 24
-23 10z"/>
<path d="M1945 5288 c13 -47 95 -205 116 -223 l22 -20 -6 32 c-8 41 -42 114
-84 181 -34 54 -59 70 -48 30z"/>
<path d="M1825 5223 c9 -21 23 -49 31 -61 9 -13 14 -25 12 -28 -2 -2 -18 20
-34 49 -26 45 -34 52 -61 52 -29 1 -30 -1 -22 -28 20 -69 133 -237 159 -237
27 0 25 19 -10 91 -16 33 -23 55 -15 49 8 -7 15 -17 15 -23 0 -18 44 -77 57
-77 13 0 -30 94 -80 175 -52 82 -78 102 -52 38z"/>
<path d="M4773 5238 c-39 -44 -123 -159 -123 -170 0 -6 9 -8 21 -5 17 5 20 2
16 -14 -9 -33 13 -17 67 51 46 59 48 62 18 41 -18 -13 -36 -20 -40 -16 -8 8
67 77 77 71 8 -5 31 13 51 39 15 19 15 19 -12 2 -35 -22 -41 -21 -33 3 9 28
-16 26 -42 -2z"/>
<path d="M4066 5208 c-31 -54 -50 -101 -36 -93 14 8 73 126 67 132 -3 2 -17
-15 -31 -39z"/>
<path d="M5336 5207 c-15 -19 -26 -37 -26 -42 0 -11 28 14 51 47 29 40 5 35
-25 -5z"/>
<path d="M4132 5188 c-28 -46 -64 -130 -52 -123 13 8 83 146 77 152 -3 2 -14
-11 -25 -29z"/>
<path d="M1330 5204 c0 -13 68 -79 75 -73 2 3 -13 23 -35 44 -22 22 -40 35
-40 29z"/>
<path d="M4218 5193 c-32 -37 -128 -218 -128 -241 0 -26 32 -19 64 14 40 41
116 185 116 220 0 29 -29 33 -52 7z"/>
<path d="M4812 5141 c-72 -74 -134 -158 -104 -142 11 6 42 37 69 68 26 32 56
67 66 78 22 24 40 55 32 55 -3 0 -31 -26 -63 -59z"/>
<path d="M3241 5137 c-15 -38 -22 -67 -26 -108 -5 -46 -6 -48 -15 -19 -6 18
-8 6 -9 -43 -1 -43 3 -66 9 -62 6 4 10 -8 10 -29 0 -49 17 -54 29 -9 34 130
35 359 2 270z"/>
<path d="M5210 5104 c-17 -20 -29 -39 -26 -42 7 -6 66 57 66 70 0 14 -7 9 -40
-28z"/>
<path d="M1230 5087 c42 -45 50 -52 50 -43 0 5 -54 60 -76 75 -10 8 1 -6 26
-32z"/>
<path d="M964 5083 c20 -39 180 -193 200 -193 26 0 15 47 -19 83 -69 71 -158
137 -186 137 -5 0 -3 -12 5 -27z"/>
<path d="M1108 5085 c27 -49 132 -136 132 -109 0 12 -85 94 -97 94 -9 0 -11 5
-7 13 4 6 4 9 -1 5 -4 -4 -15 -2 -23 5 -13 10 -14 9 -4 -8z"/>
<path d="M1760 5068 c11 -18 23 -41 26 -50 7 -19 24 -25 24 -8 0 13 -53 89
-62 90 -4 0 1 -15 12 -32z"/>
<path d="M3380 5072 c0 -18 4 -32 9 -32 4 0 7 12 5 26 -4 38 -14 42 -14 6z"/>
<path d="M4985 5070 c-3 -5 -12 -7 -20 -4 -14 6 -180 -154 -170 -164 2 -3 11
1 20 8 13 11 14 10 9 -4 -3 -9 -4 -16 -2 -16 2 0 46 43 97 95 52 52 89 95 83
95 -6 0 -13 -4 -17 -10z m-15 -13 c0 -2 -12 -14 -27 -28 -20 -18 -24 -19 -13
-4 18 24 40 42 40 32z"/>
<path d="M5476 5009 c-30 -24 -52 -59 -37 -59 13 0 81 59 81 71 0 15 -16 10
-44 -12z"/>
<path d="M4941 4940 c-64 -63 -78 -80 -68 -80 4 0 103 97 131 129 42 47 3 17
-63 -49z"/>
<path d="M1029 4948 c30 -32 57 -56 59 -54 4 5 -38 48 -83 86 -17 13 -6 -1 24
-32z"/>
<path d="M5005 4907 c-88 -90 -111 -117 -100 -117 10 0 185 181 185 191 0 14
0 14 -85 -74z"/>
<path d="M3361 4940 c0 -29 1 -32 10 -17 7 11 7 23 0 35 -9 14 -10 11 -10 -18z"/>
<path d="M2127 4954 c-7 -7 42 -117 86 -193 44 -79 45 -46 0 46 -53 110 -79
154 -86 147z"/>
<path d="M4560 4910 c-44 -44 -56 -79 -14 -39 29 27 68 79 60 79 -3 0 -24 -18
-46 -40z"/>
<path d="M5106 4924 c-29 -25 -30 -48 -1 -24 15 12 40 50 33 50 -2 0 -16 -12
-32 -26z"/>
<path d="M5355 4910 c-26 -26 -34 -40 -23 -40 19 0 65 35 78 61 19 34 -13 22
-55 -21z"/>
<path d="M2005 4920 c4 -14 18 -46 31 -72 30 -60 24 -62 -12 -3 -16 24 -38 49
-50 56 -28 15 -47 4 -34 -19 103 -193 171 -285 193 -263 8 8 6 21 -7 47 -9 20
-15 39 -12 41 2 2 7 -5 11 -16 3 -12 10 -21 15 -21 5 0 6 8 3 18 -14 37 -106
207 -125 231 l-20 26 7 -25z"/>
<path d="M1011 4903 c33 -38 51 -56 74 -72 11 -8 -5 11 -35 42 -56 59 -82 78
-39 30z"/>
<path d="M3871 4796 c-36 -69 -62 -129 -58 -132 9 -10 130 231 125 248 -2 6
-32 -47 -67 -116z"/>
<path d="M4607 4883 c-39 -38 -52 -70 -16 -37 22 20 63 74 56 74 -2 0 -20 -16
-40 -37z"/>
<path d="M780 4905 c0 -9 41 -68 54 -77 6 -4 8 -9 5 -12 -3 -3 -27 5 -53 18
-41 21 -46 22 -41 6 5 -15 2 -17 -15 -13 -30 8 -17 -17 23 -44 17 -12 51 -36
75 -52 51 -37 55 -26 6 17 -20 18 -32 32 -27 32 5 0 32 -21 60 -47 36 -34 56
-46 67 -40 9 4 24 11 33 15 27 14 25 27 -9 63 -56 58 -178 150 -178 134z m165
-165 l20 -23 -24 13 c-23 12 -71 58 -71 67 0 8 54 -34 75 -57z"/>
<path d="M3977 4873 c-37 -60 -108 -202 -117 -234 -9 -32 -4 -40 8 -11 4 9 25
51 47 92 85 164 117 242 62 153z"/>
<path d="M4058 4873 c-44 -51 -148 -235 -148 -264 0 -21 22 -40 36 -31 29 18
154 260 154 297 0 20 -24 19 -42 -2z"/>
<path d="M4991 4831 c-53 -51 -64 -69 -33 -52 19 10 92 87 92 96 0 11 -10 3
-59 -44z"/>
<path d="M3334 4835 c4 -24 13 -27 19 -5 3 13 0 20 -8 20 -7 0 -12 -7 -11 -15z"/>
<path d="M5079 4798 c-18 -18 -41 -42 -49 -53 l-15 -20 24 20 c31 25 52 46 70
68 21 27 8 20 -30 -15z"/>
<path d="M4452 4779 c-23 -22 -42 -46 -42 -52 0 -7 21 10 46 36 57 59 54 71
-4 16z"/>
<path d="M5229 4797 c-52 -32 -139 -107 -139 -121 0 -7 3 -7 8 -1 4 6 34 30
67 55 64 48 113 90 105 90 -3 0 -21 -10 -41 -23z"/>
<path d="M1441 4745 c61 -63 86 -84 58 -48 -23 30 -108 113 -115 113 -3 0 22
-29 57 -65z"/>
<path d="M1363 4715 c41 -41 78 -75 82 -75 10 0 -26 40 -95 106 -75 73 -65 49
13 -31z"/>
<path d="M4497 4752 c-45 -46 -50 -68 -6 -26 28 26 55 64 46 64 -1 0 -20 -17
-40 -38z"/>
<path d="M4617 4702 c-48 -48 -87 -91 -87 -95 0 -5 6 -2 14 5 115 108 181 180
164 178 -2 0 -42 -40 -91 -88z"/>
<path d="M1966 4738 c24 -48 55 -90 62 -84 5 6 -64 116 -73 116 -3 0 2 -15 11
-32z"/>
<path d="M700 4723 c1 -11 172 -135 178 -128 6 6 13 0 -78 67 -90 66 -100 72
-100 61z"/>
<path d="M1090 4665 c5 -14 9 -29 7 -34 -5 -18 124 -139 179 -169 23 -12 35 0
14 13 -16 10 -12 28 5 21 31 -12 13 15 -36 54 -51 40 -83 54 -59 25 10 -12 9
-15 -7 -15 -13 0 -26 15 -41 48 -12 26 -33 55 -47 65 l-25 18 10 -26z"/>
<path d="M4766 4605 c-47 -47 -86 -91 -86 -98 0 -6 38 26 85 73 73 74 103 110
91 110 -2 0 -42 -38 -90 -85z"/>
<path d="M5737 4683 c-10 -9 -9 -23 1 -23 5 0 17 7 28 15 19 14 19 14 -2 15
-11 0 -24 -3 -27 -7z"/>
<path d="M4356 4644 c-14 -15 -26 -35 -26 -45 0 -10 -4 -21 -10 -24 -5 -3 -10
-11 -10 -18 0 -16 61 46 64 65 1 9 8 23 15 32 22 26 -4 18 -33 -10z"/>
<path d="M2275 4640 c-4 -7 -1 -19 8 -27 19 -19 29 -3 12 20 -9 13 -15 15 -20
7z"/>
<path d="M5674 4643 c-25 -5 -64 -43 -45 -43 17 0 71 32 71 42 0 4 -1 7 -2 7
-2 -1 -13 -4 -24 -6z"/>
<path d="M5290 4612 c-78 -51 -132 -92 -122 -92 10 0 134 80 157 101 16 15 -8
9 -35 -9z"/>
<path d="M5794 4601 c-5 -4 -40 -24 -77 -44 -86 -46 -116 -67 -97 -67 18 0
159 75 179 96 16 15 11 29 -5 15z"/>
<path d="M1032 4578 c8 -12 20 -24 27 -26 18 -6 -9 36 -28 43 -11 5 -11 2 1
-17z"/>
<path d="M2173 4592 c-10 -6 -17 -33 -14 -57 1 -5 14 -25 30 -44 17 -19 33
-46 36 -60 9 -34 39 -83 86 -138 33 -38 94 -136 345 -562 24 -40 44 -76 44
-78 0 -2 8 -12 17 -21 36 -36 2 40 -84 186 -47 81 -94 161 -103 177 -10 17
-31 53 -47 80 -30 52 -89 159 -165 305 -103 195 -123 225 -145 212z"/>
<path d="M3793 4533 c-12 -21 -27 -52 -32 -68 -11 -28 -10 -29 5 -10 24 31 56
95 52 106 -2 6 -13 -7 -25 -28z"/>
<path d="M4247 4511 c-43 -47 -77 -100 -77 -121 0 -22 65 50 95 106 14 26 24
49 22 51 -2 2 -20 -15 -40 -36z"/>
<path d="M525 4522 c-4 -14 -11 -19 -22 -15 -36 14 1 -19 81 -71 123 -79 124
-80 152 -65 13 7 24 20 24 30 0 24 -38 49 -72 49 -18 0 -28 5 -28 14 0 14 -50
56 -65 56 -4 0 -5 -14 -3 -30 4 -29 3 -29 -16 -16 -12 7 -23 22 -24 32 -6 30
-19 38 -27 16z m215 -114 c0 -5 -9 -4 -20 2 -11 6 -20 12 -20 14 0 2 9 2 20
-1 11 -3 20 -9 20 -15z"/>
<path d="M3878 4512 c-12 -15 -31 -39 -41 -52 -15 -21 -16 -21 -7 -3 17 36 30
73 25 73 -5 0 -98 -155 -130 -218 -35 -70 -25 -79 16 -13 18 28 34 51 36 51 2
0 -8 -22 -22 -50 -28 -55 -31 -72 -12 -64 17 6 63 78 126 196 51 95 55 135 9
80z m-67 -105 c-10 -9 -11 -8 -5 6 3 10 9 15 12 12 3 -3 0 -11 -7 -18z m-11
-27 c0 -5 -5 -10 -11 -10 -5 0 -7 5 -4 10 3 6 8 10 11 10 2 0 4 -4 4 -10z"/>
<path d="M5321 4477 c-101 -61 -129 -93 -103 -119 15 -15 101 29 146 75 22 22
37 33 33 24 -8 -22 2 -21 30 1 20 16 27 32 24 58 -3 28 -36 18 -130 -39z"/>
<path d="M992 4510 c13 -20 28 -27 28 -12 0 10 -22 32 -32 32 -5 0 -3 -9 4
-20z"/>
<path d="M1170 4473 c63 -56 83 -62 25 -9 -27 25 -54 46 -59 46 -5 0 10 -17
34 -37z"/>
<path d="M480 4454 c0 -12 57 -53 74 -54 18 0 18 1 2 19 -17 19 -76 46 -76 35z"/>
<path d="M1135 4406 c27 -25 54 -46 58 -46 15 0 -9 24 -60 59 l-48 32 50 -45z"/>
<path d="M5860 4426 c-96 -36 -240 -122 -169 -101 43 12 164 72 189 93 29 25
27 25 -20 8z"/>
<path d="M2380 4415 c0 -23 21 -63 37 -69 17 -7 9 25 -15 62 -17 26 -22 28
-22 7z"/>
<path d="M1410 4401 c0 -14 80 -95 87 -88 3 4 -15 27 -41 52 -25 25 -46 42
-46 36z"/>
<path d="M4956 4370 c-26 -17 -53 -35 -59 -40 -7 -6 -23 -19 -37 -30 l-25 -21
34 17 c43 20 159 104 145 104 -6 0 -31 -14 -58 -30z"/>
<path d="M5391 4365 c-78 -42 -143 -86 -137 -93 3 -2 43 17 88 43 46 26 93 53
105 59 22 11 31 26 16 26 -5 0 -37 -16 -72 -35z"/>
<path d="M585 4380 c8 -13 100 -60 116 -60 21 0 -10 27 -56 49 -49 23 -70 27
-60 11z"/>
<path d="M1369 4321 c29 -29 56 -49 59 -47 5 5 -7 17 -55 56 -51 41 -53 37 -4
-9z"/>
<path d="M853 4330 c-3 -10 -12 -20 -21 -22 -11 -2 0 -14 31 -35 36 -24 43
-32 30 -35 -22 -5 36 -44 115 -78 55 -24 62 -23 66 5 1 9 9 20 16 25 12 7 12
11 0 25 -28 33 -162 116 -209 128 -17 4 -24 1 -28 -13z m48 -17 c13 -15 12
-15 -8 -4 -24 12 -29 21 -14 21 5 0 15 -7 22 -17z m91 -65 c-9 -9 -15 -9 -24
0 -9 9 -7 12 12 12 19 0 21 -3 12 -12z"/>
<path d="M5494 4336 c-18 -8 -35 -19 -39 -26 -4 -6 11 -2 34 9 23 12 41 24 41
26 0 6 0 7 -36 -9z"/>
<path d="M410 4332 c0 -10 231 -134 238 -128 5 6 -49 41 -118 76 -36 17 -77
39 -92 47 -16 8 -28 10 -28 5z"/>
<path d="M3666 4304 c-8 -22 -7 -34 3 -34 12 0 21 39 11 45 -4 3 -11 -2 -14
-11z"/>
<path d="M5009 4269 c-88 -53 -142 -97 -133 -110 6 -10 39 4 129 55 88 50 136
86 129 97 -11 18 -43 8 -125 -42z"/>
<path d="M1550 4274 c33 -37 64 -63 69 -58 6 6 -50 64 -74 76 -17 9 -16 6 5
-18z"/>
<path d="M5469 4275 c-58 -21 -119 -64 -129 -90 -5 -14 -14 -25 -20 -25 -5 0
-10 -5 -10 -11 0 -16 40 -4 134 41 70 33 159 89 145 91 -53 7 -91 5 -120 -6z
m21 -24 c0 -5 -8 -11 -17 -15 -10 -3 -29 -10 -43 -16 -32 -14 -21 -3 22 20 40
23 38 22 38 11z"/>
<path d="M1489 4226 c14 -14 27 -26 29 -26 10 0 -26 44 -39 48 -8 3 -3 -7 10
-22z"/>
<path d="M5307 4234 c-16 -9 -27 -18 -24 -20 6 -6 77 23 77 30 0 10 -24 6 -53
-10z"/>
<path d="M346 4221 c10 -11 109 -61 119 -61 18 0 -13 24 -60 46 -57 25 -75 30
-59 15z"/>
<path d="M5055 4187 c-95 -51 -137 -78 -131 -84 6 -6 226 113 226 123 0 9 -19
1 -95 -39z"/>
<path d="M3633 4143 c-56 -89 -163 -304 -163 -330 0 -13 -6 -23 -13 -23 -15 0
-72 -93 -83 -134 -14 -59 22 -19 98 110 117 194 159 278 108 214 l-20 -25 17
40 c10 22 37 77 61 123 23 45 40 82 37 82 -3 0 -22 -26 -42 -57z"/>
<path d="M775 4144 c33 -26 54 -35 59 -26 3 5 -11 16 -30 25 -43 21 -55 21
-29 1z"/>
<path d="M3646 4110 c-29 -53 -31 -93 -3 -50 24 37 48 100 39 100 -5 0 -21
-23 -36 -50z"/>
<path d="M516 4142 c12 -11 64 -33 64 -27 0 12 -34 35 -53 35 -12 0 -17 -4
-11 -8z"/>
<path d="M5043 4090 c-68 -32 -123 -61 -123 -64 0 -7 51 9 100 33 32 15 37 16
20 4 -49 -34 -86 -76 -72 -81 27 -9 246 104 235 121 -3 6 -1 7 5 3 7 -4 20 -3
29 3 33 18 -29 24 -77 7 -51 -17 -65 -15 -20 4 16 7 30 16 30 21 0 12 9 16
-127 -51z m52 0 c-3 -5 -12 -10 -18 -10 -7 0 -6 4 3 10 19 12 23 12 15 0z"/>
<path d="M305 4131 c-12 -21 121 -87 225 -110 53 -12 54 8 3 33 -122 59 -218
92 -228 77z"/>
<path d="M1170 4135 c0 -15 257 -165 283 -165 22 0 -18 29 -118 85 -98 56
-165 88 -165 80z"/>
<path d="M945 4065 c17 -14 36 -25 44 -25 23 0 -6 27 -42 39 l-32 11 30 -25z"/>
<path d="M5562 4065 c-43 -19 -33 -40 10 -22 18 7 33 18 36 25 5 15 -5 15 -46
-3z"/>
<path d="M5463 4028 c-31 -15 -40 -41 -10 -32 27 8 47 23 47 35 0 11 -9 10
-37 -3z"/>
<path d="M295 3987 c30 -15 150 -60 193 -72 12 -3 22 -2 22 2 0 11 -161 71
-210 79 l-35 5 30 -14z"/>
<path d="M1118 3984 c35 -24 211 -114 224 -114 19 0 -20 24 -128 79 -101 51
-138 65 -96 35z"/>
<path d="M1499 3950 c30 -26 45 -26 31 0 -6 11 -21 20 -33 20 l-22 -1 24 -19z"/>
<path d="M6043 3958 c-43 -14 -43 -33 -1 -24 35 7 76 37 48 35 -8 -1 -30 -6
-47 -11z"/>
<path d="M245 3952 c-12 -12 -2 -21 53 -45 82 -37 181 -69 193 -62 17 11 9 30
-18 42 -74 33 -104 43 -161 56 -34 8 -64 12 -67 9z"/>
<path d="M4870 3941 c-63 -20 -250 -119 -250 -133 0 -4 12 -3 28 3 45 17 206
99 232 120 27 20 27 21 -10 10z"/>
<path d="M5550 3914 c-25 -8 -53 -17 -62 -19 -10 -2 -26 -8 -35 -14 -17 -10
-17 -10 0 -11 19 0 132 36 157 51 24 14 -7 10 -60 -7z"/>
<path d="M5903 3919 c-52 -15 -54 -33 -3 -25 48 8 60 13 60 27 0 11 -14 10
-57 -2z"/>
<path d="M1578 3907 c16 -19 155 -101 197 -116 l30 -11 -29 24 c-31 26 -157
100 -191 112 -18 7 -18 6 -7 -9z"/>
<path d="M250 3866 c18 -17 95 -32 86 -17 -6 9 -68 31 -91 31 -5 0 -3 -6 5
-14z"/>
<path d="M5610 3865 c-25 -7 -65 -20 -90 -29 -25 -10 -51 -18 -57 -18 -17 -2
-17 -18 0 -18 15 0 206 66 215 74 8 9 -18 6 -68 -9z"/>
<path d="M614 3838 c-8 -13 -12 -11 101 -53 102 -38 200 -58 180 -36 -23 24
-272 103 -281 89z"/>
<path d="M1430 3846 c0 -8 96 -60 308 -167 116 -60 212 -105 212 -101 0 9 -43
33 -250 137 -223 113 -270 136 -270 131z"/>
<path d="M6060 3839 c-8 -5 -24 -9 -35 -9 -11 -1 -33 -7 -50 -16 l-30 -14 43
5 c53 7 110 29 96 37 -5 4 -16 3 -24 -3z"/>
<path d="M401 3831 c-8 -6 -3 -12 18 -21 42 -17 63 -7 25 13 -16 8 -36 12 -43
8z"/>
<path d="M5688 3815 c-2 -1 -21 -5 -43 -8 -56 -8 -136 -34 -159 -52 -29 -22
-5 -46 35 -35 16 5 30 9 32 8 18 -3 187 54 187 63 0 14 -42 33 -52 24z"/>
<path d="M213 3792 c-15 -2 -23 -10 -23 -22 0 -28 32 -45 137 -75 71 -20 97
-24 112 -15 13 7 18 16 14 28 -10 30 -35 42 -86 42 -29 0 -46 4 -42 10 6 10
-10 13 -57 10 -15 -1 -28 4 -30 12 -2 7 -13 12 -25 10z"/>
<path d="M5870 3781 c0 -10 26 -9 36 2 4 4 -2 7 -14 7 -12 0 -22 -4 -22 -9z"/>
<path d="M1825 3761 c6 -11 94 -61 106 -61 23 0 4 19 -44 43 -55 28 -72 33
-62 18z"/>
<path d="M5295 3765 c-5 -2 -55 -18 -110 -35 -103 -33 -140 -49 -133 -56 7 -7
232 68 248 82 14 14 14 15 -5 9z"/>
<path d="M6039 3745 c-48 -11 -66 -35 -22 -28 55 8 113 26 113 34 0 11 -34 8
-91 -6z"/>
<path d="M5913 3712 c-34 -5 -28 -23 7 -20 17 1 30 6 30 10 0 11 -13 14 -37
10z"/>
<path d="M650 3681 c20 -12 107 -38 150 -45 58 -10 20 14 -56 35 -74 20 -121
25 -94 10z"/>
<path d="M1970 3680 c0 -9 38 -32 93 -57 38 -17 34 1 -6 26 -45 27 -87 43 -87
31z"/>
<path d="M5268 3674 c-25 -7 -54 -17 -65 -23 -16 -9 -15 -10 9 -11 30 0 117
27 132 40 11 11 -16 9 -76 -6z"/>
<path d="M5626 3624 c-27 -7 -54 -18 -60 -24 -8 -8 -7 -10 4 -6 8 3 35 7 60
10 75 10 110 18 116 27 8 13 -63 9 -120 -7z"/>
<path d="M5095 3620 c-3 -5 3 -10 14 -10 12 0 21 5 21 10 0 6 -6 10 -14 10 -8
0 -18 -4 -21 -10z"/>
<path d="M960 3600 c0 -5 9 -10 20 -10 11 0 20 5 20 10 0 6 -9 10 -20 10 -11
0 -20 -4 -20 -10z"/>
<path d="M3334 3592 c-18 -12 -24 -40 -9 -46 13 -5 45 28 45 46 0 10 -22 10
-36 0z"/>
<path d="M1050 3580 c-12 -8 -9 -10 13 -10 16 0 26 4 22 10 -8 12 -16 12 -35
0z"/>
<path d="M2150 3565 c7 -8 18 -15 25 -15 8 0 15 -4 17 -9 7 -18 267 -165 276
-156 3 3 3 6 1 8 -2 2 -21 15 -41 30 -20 15 -39 27 -42 27 -2 0 -44 23 -92 51
-49 28 -103 57 -122 65 -31 12 -33 12 -22 -1z"/>
<path d="M5729 3567 c7 -7 14 -8 21 -1 6 6 2 10 -12 11 -16 2 -18 -1 -9 -10z"/>
<path d="M160 3559 c14 -6 48 -13 75 -15 43 -3 46 -2 25 7 -14 6 -47 13 -75
15 -43 4 -47 3 -25 -7z"/>
<path d="M1130 3561 c0 -8 24 -19 72 -35 29 -9 29 11 0 23 -38 16 -72 21 -72
12z"/>
<path d="M5331 3556 c-57 -12 -86 -38 -34 -32 35 5 113 25 113 30 0 11 -31 11
-79 2z"/>
<path d="M566 3552 c-2 -4 7 -9 22 -10 21 -1 24 0 12 8 -18 12 -27 12 -34 2z"/>
<path d="M5568 3547 c-52 -10 -66 -25 -20 -21 34 3 95 14 100 18 9 9 -39 11
-80 3z"/>
<path d="M338 3523 c6 -2 18 -2 25 0 6 3 1 5 -13 5 -14 0 -19 -2 -12 -5z"/>
<path d="M678 3523 c6 -2 18 -2 25 0 6 3 1 5 -13 5 -14 0 -19 -2 -12 -5z"/>
<path d="M5158 3518 c-21 -6 -38 -16 -38 -24 0 -7 6 -11 13 -9 6 2 32 9 56 15
33 9 41 14 30 21 -8 5 -16 8 -19 8 -3 -1 -22 -6 -42 -11z"/>
<path d="M5695 3509 c-16 -6 -14 -8 13 -8 33 -1 41 4 20 12 -7 2 -22 1 -33 -4z"/>
<path d="M2100 3506 c0 -12 328 -181 336 -173 7 7 -74 53 -209 119 -116 57
-127 62 -127 54z"/>
<path d="M5348 3504 c-2 -1 -22 -4 -46 -7 -24 -2 -49 -10 -55 -17 -9 -10 -8
-11 8 -7 11 3 41 8 67 12 26 3 50 10 52 14 4 7 -20 12 -26 5z"/>
<path d="M5554 3489 c-3 -5 9 -9 25 -9 17 0 31 2 31 4 0 8 -51 13 -56 5z"/>
<path d="M924 3479 c11 -6 68 -22 129 -35 60 -13 113 -26 117 -29 5 -3 11 -1
14 4 8 12 -76 37 -189 56 -16 2 -43 7 -60 10 -26 5 -28 4 -11 -6z"/>
<path d="M5605 3468 c-62 -13 -68 -29 -10 -24 86 7 145 18 151 28 7 11 -82 8
-141 -4z"/>
<path d="M5165 3460 c4 -6 11 -8 16 -5 14 9 11 15 -7 15 -8 0 -12 -5 -9 -10z"/>
<path d="M5770 3268 c0 -4 7 -8 15 -8 8 0 15 4 15 8 0 5 -7 9 -15 9 -8 0 -15
-4 -15 -9z"/>
<path d="M131 3260 c-70 -16 41 -57 147 -54 41 1 78 6 83 11 16 16 -1 41 -31
48 -31 7 -163 4 -199 -5z"/>
<path d="M491 3242 c-16 -11 -6 -32 14 -32 8 0 18 -7 22 -14 5 -8 28 -17 53
-20 25 -2 73 -7 107 -11 56 -6 62 -5 73 14 15 28 7 38 -41 51 -55 15 -211 23
-228 12z"/>
<path d="M5281 3229 c13 -8 68 -3 78 6 2 2 -18 4 -44 3 -30 0 -42 -4 -34 -9z"/>
<path d="M875 3220 c-8 -13 25 -21 43 -10 10 5 13 10 7 10 -5 1 -18 3 -27 5
-10 2 -20 0 -23 -5z"/>
<path d="M1039 3199 c-11 -7 -11 -9 4 -10 54 -3 102 0 95 7 -10 10 -84 13 -99
3z"/>
<path d="M5148 3203 c6 -2 18 -2 25 0 6 3 1 5 -13 5 -14 0 -19 -2 -12 -5z"/>
<path d="M950 3169 c0 -5 23 -9 52 -9 28 0 49 2 46 5 -10 10 -98 14 -98 4z"/>
<path d="M1362 3175 c9 -9 109 -12 114 -3 3 4 -23 8 -57 8 -34 0 -60 -2 -57
-5z"/>
<path d="M4510 3169 c-26 -7 -24 -9 25 -14 91 -11 135 -12 135 -4 0 17 -118
31 -160 18z"/>
<path d="M5230 3169 c-17 -5 -6 -7 39 -8 35 -1 61 2 58 6 -10 9 -68 11 -97 2z"/>
<path d="M1330 3141 c0 -4 15 -8 33 -9 17 -1 66 -4 107 -8 59 -5 73 -3 63 6
-13 14 -203 24 -203 11z"/>
<path d="M5655 3140 c-27 -3 -43 -8 -35 -11 22 -9 170 -8 165 1 -7 11 -71 16
-130 10z"/>
<path d="M6077 3144 c-1 -2 -17 -4 -35 -6 -60 -4 -32 -18 37 -18 45 0 72 4 77
13 4 6 4 9 0 6 -4 -4 -22 -3 -41 1 -19 4 -36 6 -38 4z"/>
<path d="M4357 3129 c14 -14 216 -20 236 -7 15 9 26 8 -123 15 -100 4 -123 3
-113 -8z"/>
<path d="M455 3120 c-12 -20 3 -24 105 -28 113 -5 179 3 162 20 -16 16 -258
23 -267 8z"/>
<path d="M923 3104 c9 -10 107 -12 113 -2 3 4 -23 8 -57 8 -34 0 -60 -3 -56
-6z"/>
<path d="M1242 3104 c10 -9 78 -12 78 -3 0 5 -19 9 -42 9 -23 0 -39 -3 -36 -6z"/>
<path d="M3991 3105 c9 -9 78 -12 91 -4 8 5 -8 9 -41 9 -30 0 -52 -2 -50 -5z"/>
<path d="M4105 3100 c3 -5 8 -10 11 -10 2 0 4 5 4 10 0 6 -5 10 -11 10 -5 0
-7 -4 -4 -10z"/>
<path d="M5207 3088 c-51 -7 -65 -13 -54 -25 10 -9 178 -11 244 -2 58 8 71 14
59 27 -10 9 -185 10 -249 0z"/>
<path d="M5571 3089 c-46 -18 -6 -32 96 -34 107 -1 172 10 156 26 -14 14 -222
20 -252 8z"/>
<path d="M1495 3080 c-3 -5 1 -10 10 -10 9 0 13 5 10 10 -3 6 -8 10 -10 10 -2
0 -7 -4 -10 -10z"/>
<path d="M3630 3086 c0 -2 7 -7 16 -10 8 -3 12 -2 9 4 -6 10 -25 14 -25 6z"/>
<path d="M3678 3083 c6 -2 18 -2 25 0 6 3 1 5 -13 5 -14 0 -19 -2 -12 -5z"/>
<path d="M3934 3065 c-10 -24 5 -36 27 -24 16 8 18 13 8 25 -15 18 -28 18 -35
-1z"/>
<path d="M4446 3071 c9 -9 153 -10 159 -1 2 4 -34 7 -80 7 -47 0 -82 -3 -79
-6z"/>
<path d="M4836 3069 c3 -5 41 -8 85 -7 43 1 77 4 73 7 -9 9 -164 9 -158 0z"/>
<path d="M150 3058 c0 -4 32 -8 72 -8 39 0 68 3 64 8 -10 10 -136 10 -136 0z"/>
<path d="M528 3058 c-6 -3 26 -6 70 -7 46 0 82 3 82 9 0 10 -135 9 -152 -2z"/>
<path d="M898 3058 c-8 -4 5 -8 31 -8 52 0 51 -6 -3 -14 -119 -19 -105 -33 31
-30 103 3 194 11 202 19 10 10 -16 25 -54 31 -63 10 -193 11 -207 2z"/>
<path d="M1320 3049 c-47 -6 -29 -10 50 -11 85 -1 123 2 117 8 -8 8 -113 10
-167 3z"/>
<path d="M135 3030 c-46 -5 -50 -7 -53 -34 -2 -16 1 -33 6 -38 11 -11 95 -12
157 -2 22 3 53 7 69 8 37 3 62 34 43 53 -15 15 -135 22 -222 13z"/>
<path d="M521 3030 c-67 -5 -83 -17 -57 -42 10 -11 30 -14 63 -12 212 14 233
17 233 35 0 18 -126 28 -239 19z"/>
<path d="M5650 3032 c-73 -7 -47 -19 39 -19 50 1 91 5 91 9 0 4 -8 8 -17 9
-10 0 -31 1 -48 2 -16 1 -46 1 -65 -1z"/>
<path d="M6040 3032 c-71 -7 -51 -21 28 -19 44 1 84 5 88 10 4 4 -4 7 -17 8
-13 0 -33 1 -44 2 -11 1 -36 1 -55 -1z"/>
<path d="M638 2823 c7 -3 16 -2 19 1 4 3 -2 6 -13 5 -11 0 -14 -3 -6 -6z"/>
<path d="M480 2800 c0 -5 7 -7 15 -4 8 4 15 8 15 10 0 2 -7 4 -15 4 -8 0 -15
-4 -15 -10z"/>
<path d="M190 2789 c-40 -7 -26 -11 45 -11 81 0 99 2 91 10 -9 9 -88 10 -136
1z"/>
<path d="M4778 2783 c-10 -2 -18 -8 -18 -13 0 -13 32 -17 58 -8 26 9 75 0 67
-12 -9 -14 44 -17 63 -4 11 7 23 10 27 6 5 -4 5 -2 2 4 -10 18 -158 38 -199
27z"/>
<path d="M5540 2760 c-12 -8 -10 -10 8 -10 13 0 20 4 17 10 -7 12 -6 12 -25 0z"/>
<path d="M5135 2740 c-3 -5 3 -10 15 -10 12 0 18 5 15 10 -3 6 -10 10 -15 10
-5 0 -12 -4 -15 -10z"/>
<path d="M5650 2740 c0 -8 122 -32 129 -25 2 3 0 9 -5 14 -11 11 -124 21 -124
11z"/>
<path d="M5254 2719 c-3 -5 6 -9 20 -9 14 0 27 4 30 9 3 5 -6 9 -19 9 -14 0
-28 -4 -31 -9z"/>
<path d="M5920 2720 c-12 -8 -10 -10 8 -10 13 0 20 4 17 10 -7 12 -6 12 -25 0z"/>
<path d="M643 2713 c-7 -3 -13 -8 -13 -13 0 -13 108 -6 122 8 11 11 3 13 -42
11 -30 -1 -61 -4 -67 -6z"/>
<path d="M5180 2709 c-14 -4 -23 -8 -20 -9 21 -7 46 -8 58 -1 21 12 -7 20 -38
10z"/>
<path d="M5510 2695 c-23 -28 14 -68 73 -79 15 -2 35 -7 45 -10 30 -9 96 -19
121 -18 30 0 41 12 44 48 2 28 0 29 -41 28 -31 0 -41 3 -38 13 3 7 -2 13 -12
14 -9 0 -26 2 -37 5 -11 2 -47 6 -81 9 -47 4 -64 2 -74 -10z"/>
<path d="M6046 2702 c-3 -4 4 -9 15 -9 23 -2 25 3 4 10 -8 4 -16 3 -19 -1z"/>
<path d="M2390 2689 c-8 -5 -76 -43 -150 -85 -219 -125 -468 -273 -475 -284
-9 -14 18 -13 52 2 32 15 130 72 253 148 47 29 117 72 155 94 39 23 83 51 100
62 16 10 26 14 22 7 -4 -6 -44 -33 -90 -59 -45 -27 -93 -59 -107 -73 -24 -23
-23 -23 25 4 67 38 215 133 215 139 0 3 -7 3 -15 0 -27 -11 -16 5 15 21 17 9
30 20 30 25 0 12 -10 12 -30 -1z"/>
<path d="M5320 2690 c-18 -5 -21 -9 -10 -13 13 -6 70 -5 70 0 0 10 -40 18 -60
13z"/>
<path d="M514 2681 c3 -5 17 -8 31 -8 14 0 28 3 31 8 3 5 -11 9 -31 9 -20 0
-34 -4 -31 -9z"/>
<path d="M248 2635 c-94 -15 -98 -29 -8 -21 82 7 120 15 120 25 0 10 -36 9
-112 -4z"/>
<path d="M5910 2620 c0 -5 9 -10 21 -10 11 0 17 5 14 10 -3 6 -13 10 -21 10
-8 0 -14 -4 -14 -10z"/>
<path d="M3810 2612 c0 -8 11 -15 99 -69 60 -36 100 -46 59 -14 -27 22 -143
91 -152 91 -3 0 -6 -3 -6 -8z"/>
<path d="M6008 2599 c-8 -6 3 -9 31 -9 24 0 42 3 39 6 -10 10 -56 12 -70 3z"/>
<path d="M310 2592 c0 -4 9 -8 20 -9 11 -1 18 2 15 8 -7 11 -35 12 -35 1z"/>
<path d="M648 2576 c-38 -7 -73 -17 -79 -23 -8 -8 3 -8 38 -2 26 5 61 12 77
15 35 6 70 24 46 23 -8 -1 -45 -6 -82 -13z"/>
<path d="M3801 2562 c45 -35 244 -166 349 -229 89 -53 106 -60 111 -46 5 14
14 9 50 -27 64 -65 83 -79 225 -172 177 -116 201 -129 207 -114 3 8 -18 27
-51 47 -31 19 -67 44 -81 57 l-24 22 24 0 24 0 -25 20 c-30 24 -46 25 -54 5
-5 -13 -11 -12 -40 7 -33 21 -40 45 -10 34 8 -3 14 -1 14 4 0 11 -1 11 -45 15
-41 3 -76 15 -93 31 -11 12 -10 14 9 14 18 0 20 2 9 15 -11 13 -7 12 18 -2 17
-10 34 -14 38 -11 20 21 -57 85 -186 155 -52 29 -229 103 -245 103 -14 0 38
-36 153 -105 61 -37 112 -69 112 -71 0 -3 -17 3 -37 12 -21 9 -51 20 -67 25
-15 4 -34 15 -40 24 -6 9 -36 26 -66 39 -30 12 -108 55 -173 94 -119 72 -151
88 -106 54z m434 -243 c11 -17 0 -20 -21 -4 -17 13 -17 14 -2 15 9 0 20 -5 23
-11z"/>
<path d="M5470 2461 c0 -5 15 -12 33 -16 17 -4 40 -9 50 -11 9 -3 17 -1 17 4
0 5 -20 15 -44 21 -54 13 -56 13 -56 2z"/>
<path d="M2028 2431 c-52 -33 -67 -51 -42 -51 26 0 4 -21 -96 -92 -49 -34 -87
-65 -84 -67 7 -8 232 148 258 180 25 30 34 59 18 59 -4 0 -29 -13 -54 -29z
m29 -28 c-8 -9 -21 -13 -27 -11 -9 3 -8 9 4 21 10 9 22 14 28 11 6 -4 4 -12
-5 -21z"/>
<path d="M5640 2420 c-12 -8 -10 -10 8 -10 13 0 20 4 17 10 -7 12 -6 12 -25 0z"/>
<path d="M320 2400 c0 -5 6 -10 14 -10 8 0 18 5 21 10 3 6 -3 10 -14 10 -12 0
-21 -4 -21 -10z"/>
<path d="M224 2390 c-36 -8 -54 -18 -54 -30 0 -9 80 8 93 20 14 12 -6 17 -39
10z"/>
<path d="M388 2385 c-3 -3 -18 -8 -34 -11 -81 -14 -213 -56 -195 -62 7 -2 40
3 72 13 33 9 70 18 81 20 43 9 88 27 88 36 0 10 -4 12 -12 4z"/>
<path d="M1185 2356 c-51 -16 -105 -45 -84 -46 26 0 107 30 120 46 6 8 10 14
8 13 -2 0 -22 -6 -44 -13z"/>
<path d="M5440 2345 c13 -16 60 -21 60 -6 0 11 -25 21 -52 21 -17 0 -18 -3 -8
-15z"/>
<path d="M5861 2351 c-37 -23 38 -66 137 -79 69 -9 102 -5 102 12 0 13 -63 42
-109 51 -13 2 -31 7 -41 10 -33 10 -77 13 -89 6z"/>
<path d="M1850 2315 c-30 -19 -49 -35 -42 -35 12 0 102 59 102 67 0 6 -6 3
-60 -32z"/>
<path d="M357 2319 c-6 -3 -44 -14 -84 -24 -72 -17 -114 -38 -101 -50 5 -5 72
12 240 62 10 3 15 9 12 14 -6 10 -47 8 -67 -2z"/>
<path d="M5550 2321 c0 -12 108 -53 129 -49 9 2 -3 12 -29 24 -57 27 -100 37
-100 25z"/>
<path d="M970 2279 c-25 -12 -39 -23 -33 -26 16 -6 110 25 118 38 11 16 -39 9
-85 -12z"/>
<path d="M1647 2261 c-41 -21 -107 -61 -147 -88 -57 -37 -69 -49 -52 -51 27
-4 78 20 185 88 77 49 105 75 93 87 -2 2 -37 -14 -79 -36z"/>
<path d="M5436 2290 c12 -12 130 -56 174 -65 32 -6 33 -5 15 7 -34 23 -208 77
-189 58z"/>
<path d="M381 2276 c-47 -17 -53 -37 -9 -26 50 12 68 21 62 31 -6 11 -10 11
-53 -5z"/>
<path d="M241 2239 c-20 -8 -36 -27 -28 -35 6 -6 73 21 80 33 7 10 -25 12 -52
2z"/>
<path d="M5830 2234 c19 -8 43 -13 55 -11 18 3 17 5 -8 15 -16 7 -40 12 -55
12 -26 -1 -26 -1 8 -16z"/>
<path d="M805 2220 c-38 -10 -101 -33 -140 -50 -65 -30 -68 -33 -47 -43 17 -8
36 -7 70 2 71 18 192 80 192 96 0 8 -1 15 -2 14 -2 0 -34 -8 -73 -19z"/>
<path d="M4490 2225 c0 -3 8 -9 18 -13 9 -4 50 -29 90 -55 82 -55 191 -111
199 -103 10 10 -26 36 -148 106 -109 62 -159 82 -159 65z"/>
<path d="M1673 2194 c-18 -14 -33 -32 -33 -40 0 -8 -8 -14 -17 -14 -26 -1
-104 -38 -130 -62 -17 -16 -20 -25 -12 -39 9 -17 11 -17 47 4 54 31 174 118
195 141 38 42 1 50 -50 10z m-104 -100 c-12 -15 -61 -44 -75 -44 -3 0 -1 7 6
15 7 8 19 15 26 15 8 0 14 4 14 9 0 5 8 12 18 14 9 3 19 5 21 6 2 0 -2 -6 -10
-15z"/>
<path d="M5952 2204 c10 -10 98 -33 98 -26 0 11 -52 32 -79 32 -13 0 -22 -3
-19 -6z"/>
<path d="M770 2132 c-36 -14 -67 -28 -70 -31 -3 -4 -16 -12 -30 -18 -14 -6
-19 -12 -12 -12 19 -1 202 75 202 84 0 9 -26 3 -90 -23z"/>
<path d="M450 2120 c0 -5 5 -10 10 -10 6 0 10 -4 10 -8 0 -4 -15 -7 -32 -7
-42 2 -155 -23 -191 -42 -19 -9 -27 -20 -23 -29 3 -9 6 -22 6 -29 0 -7 8 -12
17 -11 25 4 73 -33 66 -50 -7 -19 31 -5 86 31 21 15 45 25 53 24 27 -6 54 12
66 43 10 29 9 35 -11 56 -28 30 -57 47 -57 32z m-135 -75 c-40 -19 -67 -18
-35 0 14 8 34 14 45 14 15 -1 13 -4 -10 -14z m10 -55 c3 -5 2 -10 -4 -10 -5 0
-13 5 -16 10 -3 6 -2 10 4 10 5 0 13 -4 16 -10z"/>
<path d="M5435 2121 c8 -15 138 -71 162 -71 17 0 -18 26 -61 45 -64 28 -110
39 -101 26z"/>
<path d="M5780 2094 c0 -8 83 -44 100 -43 12 0 11 2 -2 10 -25 14 -98 39 -98
33z"/>
<path d="M1270 2033 c-81 -42 -140 -94 -140 -123 0 -33 50 -12 190 78 58 38
81 62 74 74 -11 17 -55 6 -124 -29z"/>
<path d="M4700 2051 c27 -22 40 -26 40 -12 0 5 -8 11 -17 15 -10 3 -25 9 -33
12 -8 3 -4 -4 10 -15z"/>
<path d="M4853 2053 c-3 -9 -2 -23 4 -32 10 -17 216 -144 252 -156 18 -5 21
-2 21 23 0 16 -8 36 -17 44 -31 27 -93 58 -125 62 -17 2 -40 16 -56 34 -32 36
-70 48 -79 25z"/>
<path d="M4530 2056 c0 -5 118 -89 148 -105 12 -7 22 -8 22 -2 0 5 -34 32 -76
60 -68 46 -94 59 -94 47z"/>
<path d="M5735 2005 c22 -18 91 -38 108 -32 18 6 -43 34 -88 42 -38 6 -39 5
-20 -10z"/>
<path d="M1276 1945 c-125 -77 -182 -124 -91 -75 33 18 67 39 76 46 8 8 20 14
25 14 10 1 68 50 63 54 -2 1 -35 -16 -73 -39z"/>
<path d="M4850 1959 c17 -17 29 -33 27 -35 -2 -3 -21 3 -43 12 -36 15 -37 15
-24 -1 14 -17 150 -109 216 -146 59 -33 37 -4 -42 56 -42 31 -74 59 -71 61 3
3 36 -11 75 -30 97 -50 111 -44 27 10 -67 43 -178 104 -190 104 -4 0 8 -14 25
-31z"/>
<path d="M1300 1894 c-118 -77 -150 -102 -116 -90 21 7 246 155 246 162 0 11
-24 -2 -130 -72z"/>
<path d="M5875 1960 c11 -19 63 -41 70 -30 4 6 -9 17 -29 25 -42 18 -49 19
-41 5z"/>
<path d="M966 1943 c-4 -5 -11 -8 -14 -8 -15 0 -142 -68 -153 -81 -8 -10 -1
-9 27 4 76 35 143 72 149 82 7 12 2 13 -9 3z"/>
<path d="M972 1910 c-36 -22 -55 -47 -26 -36 10 5 36 10 57 13 41 6 46 13 18
30 -15 9 -24 8 -49 -7z"/>
<path d="M1381 1884 c-58 -37 -116 -84 -107 -84 9 0 85 49 135 87 58 44 40 42
-28 -3z"/>
<path d="M4777 1914 c-4 -4 -7 -11 -7 -14 0 -28 224 -190 240 -174 24 24 -56
104 -104 104 -12 0 -27 9 -34 20 -7 11 -20 20 -30 20 -9 0 -22 10 -27 22 -11
23 -27 33 -38 22z m213 -150 c0 -2 -9 0 -20 6 -11 6 -20 13 -20 16 0 2 9 0 20
-6 11 -6 20 -13 20 -16z"/>
<path d="M5260 1906 c0 -7 153 -93 180 -101 43 -13 10 11 -82 59 -85 45 -98
50 -98 42z"/>
<path d="M5235 1881 c3 -5 -4 -12 -15 -16 -11 -3 -20 -10 -20 -15 0 -9 77 -61
132 -89 16 -8 26 -16 24 -18 -1 -2 -34 12 -72 32 -76 38 -93 43 -74 20 15 -18
10 -18 -24 -5 -15 5 -28 5 -31 0 -5 -8 187 -129 228 -143 23 -8 22 8 -3 33
-23 23 -14 26 14 5 35 -26 52 -18 25 11 l-24 26 27 -7 c20 -5 29 -3 34 8 6 18
-12 56 -35 74 -22 17 -29 16 -34 -4 -3 -14 -7 -11 -22 14 -22 35 -89 83 -118
83 -10 0 -16 -4 -12 -9z m70 -49 c-3 -3 -11 0 -18 7 -9 10 -8 11 6 5 10 -3 15
-9 12 -12z"/>
<path d="M983 1865 c-17 -7 -38 -24 -47 -36 l-17 -24 -19 23 c-19 22 -20 23
-52 7 -73 -35 -94 -69 -26 -40 32 13 37 13 42 -1 3 -8 1 -24 -5 -36 -10 -18
-12 -18 -28 -4 -15 14 -20 14 -37 2 -18 -14 -18 -15 0 -35 11 -12 26 -21 35
-21 22 0 111 53 135 79 11 11 25 21 32 21 30 0 65 24 62 43 -4 28 -38 37 -75
22z"/>
<path d="M3030 1870 c-13 -8 -13 -13 -2 -30 15 -24 26 -116 32 -260 2 -35 4
-39 9 -21 5 19 7 224 2 304 -1 19 -18 22 -41 7z"/>
<path d="M933 1732 c-51 -31 -94 -62 -97 -69 -5 -12 104 49 180 101 73 49 9
25 -83 -32z"/>
<path d="M2135 1762 c-6 -4 -22 -23 -35 -42 -13 -19 -27 -37 -30 -40 -8 -8
-66 -93 -74 -110 -15 -30 57 57 105 128 27 39 48 72 47 72 -2 0 -8 -4 -13 -8z"/>
<path d="M521 1723 c-40 -21 -69 -39 -63 -41 12 -4 139 56 148 69 9 16 -9 9
-85 -28z"/>
<path d="M1024 1724 c-51 -30 -135 -100 -94 -79 25 14 160 107 160 111 0 7 -6
4 -66 -32z"/>
<path d="M5110 1755 c0 -7 154 -111 215 -145 48 -27 56 -29 41 -12 -35 40
-256 176 -256 157z"/>
<path d="M620 1690 c-15 -16 -36 -30 -45 -30 -25 0 -113 -50 -120 -68 -3 -8 0
-19 7 -23 24 -15 238 112 238 143 0 21 -54 6 -80 -22z"/>
<path d="M1087 1694 c-21 -14 -36 -28 -33 -31 7 -7 76 36 76 48 0 12 -1 12
-43 -17z"/>
<path d="M5100 1683 c0 -11 63 -63 138 -114 70 -46 102 -59 102 -41 0 20 -105
99 -187 141 -45 23 -53 25 -53 14z"/>
<path d="M5551 1681 c-19 -12 24 -40 51 -33 21 5 21 5 -1 24 -26 20 -30 21
-50 9z"/>
<path d="M4635 1660 c22 -27 56 -60 62 -60 9 0 -23 38 -51 60 l-31 24 20 -24z"/>
<path d="M1615 1623 c-22 -25 -42 -50 -44 -56 -5 -16 68 54 81 76 17 33 4 25
-37 -20z"/>
<path d="M677 1621 c-39 -25 -43 -31 -21 -31 10 0 33 11 49 25 35 28 14 33
-28 6z"/>
<path d="M5630 1631 c0 -21 124 -91 161 -91 18 0 19 2 9 15 -30 36 -170 99
-170 76z"/>
<path d="M940 1589 c-30 -21 -48 -39 -40 -39 8 0 22 6 31 13 57 45 72 58 68
61 -2 3 -29 -13 -59 -35z"/>
<path d="M2085 1622 c-18 -12 -65 -80 -75 -108 -10 -25 -9 -26 6 -13 10 8 33
38 51 67 33 51 39 69 18 54z"/>
<path d="M5536 1607 c4 -11 104 -67 119 -67 2 0 2 6 -1 14 -4 11 -102 66 -118
66 -3 0 -3 -6 0 -13z"/>
<path d="M580 1562 c-42 -23 -54 -47 -17 -33 35 14 67 34 67 43 0 12 -12 10
-50 -10z"/>
<path d="M4779 1536 c19 -20 37 -36 38 -36 9 0 -34 49 -52 60 -11 7 -4 -4 14
-24z"/>
<path d="M615 1529 c-56 -42 -67 -56 -25 -32 61 34 80 48 80 55 0 14 -14 8
-55 -23z"/>
<path d="M1542 1496 c-55 -57 -70 -76 -59 -76 2 0 34 32 71 70 36 39 62 70 58
70 -5 0 -37 -29 -70 -64z"/>
<path d="M1202 1518 c-18 -17 -30 -34 -27 -36 3 -3 19 9 36 27 17 18 29 35 26
37 -2 2 -18 -10 -35 -28z"/>
<path d="M3694 1524 c3 -9 6 -18 6 -20 0 -3 4 -3 10 1 11 7 2 35 -12 35 -6 0
-7 -7 -4 -16z"/>
<path d="M5500 1502 c75 -54 150 -98 180 -107 l25 -6 -25 20 c-39 32 -182 118
-210 126 -16 5 -5 -7 30 -33z"/>
<path d="M3634 1498 c8 -39 36 -74 36 -45 0 20 -27 77 -37 77 -3 0 -3 -15 1
-32z"/>
<path d="M5710 1505 c30 -22 60 -33 60 -21 0 8 -67 46 -81 46 -7 0 2 -11 21
-25z"/>
<path d="M4480 1517 c0 -2 14 -16 31 -33 22 -20 28 -23 19 -8 -11 18 -50 50
-50 41z"/>
<path d="M1287 1466 c-15 -13 -24 -26 -20 -29 3 -4 17 5 30 19 13 15 23 28 21
30 -2 2 -16 -7 -31 -20z"/>
<path d="M724 1424 c-67 -40 -103 -70 -69 -58 23 9 135 82 135 89 0 8 -4 6
-66 -31z"/>
<path d="M1086 1424 c-20 -20 -36 -40 -36 -46 0 -5 18 9 40 32 22 23 40 44 40
46 0 9 -10 2 -44 -32z"/>
<path d="M3024 1425 c-9 -40 -7 -253 3 -287 7 -24 10 -25 27 -12 13 9 20 27
21 49 1 19 5 38 10 43 5 4 6 2 2 -3 -3 -6 -2 -17 4 -25 6 -10 9 1 9 37 0 28
-4 53 -9 55 -5 2 -11 32 -12 68 -4 93 -8 109 -30 107 -12 -1 -21 -12 -25 -32z"/>
<path d="M3739 1409 c23 -50 47 -77 36 -39 -12 39 -35 80 -45 80 -5 0 -1 -18
9 -41z"/>
<path d="M4525 1431 c11 -14 44 -49 73 -79 41 -44 52 -51 52 -35 0 19 -55 83
-71 83 -4 0 -14 6 -21 13 -7 6 -22 19 -33 27 -20 15 -20 15 0 -9z"/>
<path d="M4680 1444 c0 -11 52 -56 57 -50 3 3 -6 16 -20 30 -26 26 -37 32 -37
20z"/>
<path d="M5435 1430 c8 -12 156 -115 178 -123 43 -16 9 17 -75 73 -87 57 -116
71 -103 50z"/>
<path d="M1184 1382 c-63 -63 -89 -92 -80 -92 7 0 103 93 125 123 25 32 3 17
-45 -31z"/>
<path d="M2931 1380 c-1 -28 2 -50 7 -50 9 0 11 85 1 94 -3 3 -6 -17 -8 -44z"/>
<path d="M1889 1358 c-66 -93 -110 -168 -99 -168 11 0 150 206 150 221 0 17
-7 9 -51 -53z"/>
<path d="M4940 1401 c0 -10 49 -56 54 -50 1 2 -10 16 -25 31 -16 15 -29 24
-29 19z"/>
<path d="M1828 1358 c-48 -60 -101 -139 -96 -144 3 -2 27 26 54 64 86 116 112
166 42 80z"/>
<path d="M3687 1393 c-8 -13 -3 -39 19 -88 15 -32 19 -36 21 -19 5 26 -31 121
-40 107z"/>
<path d="M1320 1306 c-76 -74 -113 -116 -102 -116 4 0 47 41 96 90 49 50 85
90 80 90 -5 0 -38 -29 -74 -64z"/>
<path d="M815 1274 c-98 -73 -120 -92 -112 -100 9 -10 61 24 102 65 21 23 43
41 48 41 4 0 22 13 40 30 55 52 14 33 -78 -36z"/>
<path d="M1334 1266 c-41 -40 -74 -78 -74 -82 0 -5 36 27 80 71 44 44 80 81
80 82 0 11 -22 -7 -86 -71z"/>
<path d="M5064 1291 c16 -17 32 -29 34 -26 7 7 -18 34 -42 47 -16 8 -14 3 8
-21z"/>
<path d="M3790 1298 c0 -7 5 -20 10 -28 8 -12 10 -11 10 7 0 12 -4 25 -10 28
-5 3 -10 0 -10 -7z"/>
<path d="M4850 1295 c32 -39 123 -125 132 -125 5 0 -22 32 -61 70 -38 39 -73
70 -77 70 -3 0 -1 -7 6 -15z"/>
<path d="M843 1203 c-32 -25 -60 -48 -62 -50 -2 -1 -2 -5 1 -8 3 -3 36 19 73
50 37 30 63 55 57 55 -6 0 -37 -21 -69 -47z"/>
<path d="M4761 1165 c82 -84 140 -132 124 -104 -12 20 -76 102 -94 119 -105
101 -131 88 -30 -15z"/>
<path d="M914 1168 c-27 -29 -61 -66 -74 -82 l-25 -29 25 13 25 13 -25 -29
c-18 -20 -19 -24 -5 -14 23 17 121 115 150 150 18 22 17 22 -20 -4 l-40 -29
29 31 c17 18 25 32 20 32 -5 0 -32 -24 -60 -52z"/>
<path d="M2910 1173 c0 -22 2 -25 10 -13 13 20 13 40 0 40 -5 0 -10 -12 -10
-27z"/>
<path d="M941 1099 c-50 -50 -91 -96 -91 -102 0 -7 44 32 97 85 53 54 95 100
92 103 -4 3 -47 -36 -98 -86z"/>
<path d="M1562 1162 c-54 -70 -71 -96 -67 -100 6 -6 74 72 99 116 14 24 -11
12 -32 -16z"/>
<path d="M3760 1136 c0 -24 19 -58 30 -51 11 7 1 41 -16 56 -11 9 -14 8 -14
-5z"/>
<path d="M4574 1134 c11 -28 75 -120 117 -168 39 -44 59 -51 59 -20 0 8 -4 13
-9 10 -5 -3 -11 9 -15 26 -7 37 -42 78 -66 78 -10 0 -16 10 -18 28 -1 15 -11
35 -23 45 -27 22 -53 23 -45 1z m111 -114 c10 -11 16 -20 13 -20 -3 0 -13 9
-23 20 -10 11 -16 20 -13 20 3 0 13 -9 23 -20z"/>
<path d="M3883 1103 c19 -43 35 -68 40 -63 7 7 -33 90 -44 90 -4 0 -3 -12 4
-27z"/>
<path d="M2525 1110 c-11 -18 -35 -113 -30 -119 9 -8 14 4 29 64 15 57 16 78
1 55z"/>
<path d="M1633 1083 c-37 -38 -127 -172 -120 -180 4 -3 8 -4 10 -2 1 2 19 24
38 49 80 103 127 189 72 133z"/>
<path d="M2416 1088 c-30 -47 -72 -200 -48 -172 17 18 77 194 67 194 -3 0 -11
-10 -19 -22z"/>
<path d="M1720 1078 c-57 -61 -158 -223 -147 -235 3 -2 30 25 60 62 81 98 155
245 87 173z"/>
<path d="M2635 1080 c-5 -14 -10 -29 -11 -35 -1 -5 -11 -46 -22 -90 -11 -44
-23 -100 -26 -125 -6 -43 -6 -44 8 -20 8 14 17 41 20 60 3 19 15 75 26 123 20
84 23 141 5 87z"/>
<path d="M3594 1067 c7 -45 16 -67 28 -67 9 0 5 51 -8 83 -11 30 -25 18 -20
-16z"/>
<path d="M4810 1082 c0 -11 49 -57 54 -51 3 2 -9 16 -25 31 -16 15 -29 24 -29
20z"/>
<path d="M1118 1072 c-44 -18 -176 -166 -158 -177 20 -12 102 56 163 136 36
48 35 57 -5 41z m-58 -85 c0 -2 -10 -12 -22 -23 l-23 -19 19 23 c18 21 26 27
26 19z"/>
<path d="M2717 1057 c-3 -8 -1 -20 4 -28 5 -8 9 -9 10 -4 0 6 2 18 4 28 4 20
-10 23 -18 4z"/>
<path d="M3069 1067 c-1 -4 -3 -11 -4 -17 -1 -5 -3 -13 -4 -16 0 -4 -7 -1 -15
5 -22 18 -27 -10 -27 -151 0 -138 5 -163 28 -132 11 15 15 16 22 5 5 -7 17
-11 27 -9 17 3 19 12 18 78 -3 130 -13 213 -29 229 -8 9 -16 12 -16 8z"/>
<path d="M3530 1049 c0 -11 4 -18 10 -14 5 3 7 12 3 20 -7 21 -13 19 -13 -6z"/>
<path d="M5145 1040 c102 -108 128 -132 145 -135 11 -2 20 -1 20 3 0 16 -139
144 -149 138 -6 -4 -11 -3 -11 2 0 6 -8 13 -17 17 -11 4 -7 -6 12 -25z"/>
<path d="M2910 1035 c0 -15 4 -24 10 -20 6 3 10 12 10 20 0 8 -4 17 -10 20 -6
4 -10 -5 -10 -20z"/>
<path d="M3811 1020 c-1 -34 51 -141 56 -117 3 9 -9 45 -25 80 -23 47 -31 56
-31 37z"/>
<path d="M4591 1010 c30 -44 47 -65 82 -104 20 -22 16 -12 -13 30 -23 34 -53
72 -67 85 l-27 24 25 -35z"/>
<path d="M1824 1002 c-29 -19 -144 -225 -121 -216 17 6 148 225 134 224 -1 0
-7 -4 -13 -8z"/>
<path d="M3150 939 c0 -34 3 -49 9 -40 9 14 6 79 -4 89 -3 3 -5 -19 -5 -49z"/>
<path d="M3550 973 c0 -13 5 -23 10 -23 13 0 13 11 0 30 -8 12 -10 11 -10 -7z"/>
<path d="M1908 948 c-26 -50 -40 -90 -28 -83 19 12 66 115 52 115 -4 0 -15
-15 -24 -32z"/>
<path d="M3945 958 c10 -31 25 -47 25 -26 0 24 -11 48 -22 48 -5 0 -6 -10 -3
-22z"/>
<path d="M4307 973 c-8 -7 23 -67 77 -152 49 -76 67 -93 85 -82 10 7 8 17 -10
52 -52 104 -134 201 -152 182z"/>
<path d="M5010 962 c0 -20 6 -29 93 -122 32 -33 62 -58 67 -55 16 10 12 17
-36 70 -25 28 -60 67 -77 88 -35 41 -47 46 -47 19z"/>
<path d="M1233 951 c-25 -21 -30 -33 -10 -25 10 4 43 45 35 44 -2 -1 -13 -9
-25 -19z"/>
<path d="M2697 939 c-3 -12 -2 -29 2 -37 6 -11 9 -8 13 11 6 34 -7 57 -15 26z"/>
<path d="M5148 911 c28 -28 54 -51 58 -51 10 0 -68 80 -90 92 -11 6 4 -12 32
-41z"/>
<path d="M3639 940 c-2 -28 7 -85 16 -100 15 -24 22 3 13 47 -10 49 -27 79
-29 53z"/>
<path d="M1080 885 c-29 -31 -50 -58 -48 -60 3 -3 28 20 58 50 29 31 50 58 48
60 -3 3 -28 -20 -58 -50z"/>
<path d="M1942 903 c-29 -42 -90 -164 -97 -195 -9 -35 2 -53 20 -34 15 15 110
199 120 234 9 32 -19 29 -43 -5z"/>
<path d="M2465 909 c-4 -6 -3 -15 3 -21 6 -6 11 -4 15 6 7 18 -9 31 -18 15z"/>
<path d="M4260 905 c-1 -29 116 -222 128 -211 8 9 -65 148 -98 187 -16 19 -29
29 -30 24z"/>
<path d="M3583 862 c3 -24 9 -48 14 -53 13 -13 6 58 -8 80 -7 12 -9 4 -6 -27z"/>
<path d="M1143 840 c-29 -27 -53 -54 -53 -60 0 -12 76 57 96 88 8 12 13 22 12
22 -2 0 -27 -23 -55 -50z"/>
<path d="M2894 850 c0 -22 1 -38 4 -35 8 8 13 75 5 75 -5 0 -8 -18 -9 -40z"/>
<path d="M4140 855 c0 -32 106 -232 118 -221 5 6 -62 149 -96 206 -17 27 -22
30 -22 15z"/>
<path d="M2677 820 c-3 -11 -1 -23 4 -26 5 -3 9 6 9 20 0 31 -6 34 -13 6z"/>
<path d="M4026 832 c-18 -30 80 -252 111 -252 19 0 17 8 -27 114 -47 114 -51
139 -10 74 17 -27 30 -52 30 -57 0 -5 7 -14 15 -21 13 -11 13 -8 3 21 -30 89
-99 157 -122 121z"/>
<path d="M1831 817 c-14 -17 -41 -82 -41 -99 0 -19 46 53 54 85 7 30 4 34 -13
14z"/>
<path d="M2165 795 c-25 -24 -33 -55 -15 -55 15 0 50 42 50 62 0 24 -6 23 -35
-7z"/>
<path d="M3961 798 c9 -19 9 -21 -2 -10 -22 20 -39 14 -39 -15 0 -38 44 -157
72 -199 28 -42 58 -46 58 -7 0 26 1 26 15 7 31 -41 6 30 -27 76 -17 25 -31 56
-30 69 2 25 -36 101 -50 101 -5 0 -3 -10 3 -22z"/>
<path d="M5030 795 c37 -44 70 -73 70 -62 0 2 -21 23 -47 47 -26 25 -36 32
-23 15z"/>
<path d="M1388 723 c-24 -38 -53 -81 -63 -98 -16 -27 -14 -26 16 7 41 45 113
158 101 158 -5 0 -29 -30 -54 -67z"/>
<path d="M2294 734 c-18 -43 -29 -94 -20 -94 8 0 36 63 41 92 2 10 7 23 10 28
3 6 1 10 -5 10 -6 0 -18 -16 -26 -36z"/>
<path d="M1468 730 c-14 -10 -42 -47 -61 -80 -29 -47 -33 -62 -22 -66 7 -3 11
-12 8 -20 -6 -15 6 -18 22 -6 16 10 80 102 100 141 14 28 14 35 3 42 -19 12
-22 11 -50 -11z m-14 -65 c-9 -14 -18 -25 -21 -25 -5 0 5 18 20 38 17 22 18
13 1 -13z"/>
<path d="M2406 678 c-8 -29 -18 -66 -21 -83 l-6 -30 15 25 c19 34 46 140 35
140 -4 0 -15 -24 -23 -52z"/>
<path d="M3706 675 c7 -65 37 -157 42 -131 6 30 -7 98 -28 141 l-20 40 6 -50z"/>
<path d="M2127 697 c-24 -18 -40 -67 -23 -67 9 0 12 -8 9 -22 -4 -20 -3 -21 7
-6 19 30 39 97 31 102 -4 3 -15 0 -24 -7z"/>
<path d="M2661 687 c-10 -26 -28 -117 -37 -182 -3 -22 -7 -46 -9 -52 -7 -20 5
-43 22 -43 25 0 44 68 50 180 4 74 2 109 -6 114 -6 4 -15 -3 -20 -17z"/>
<path d="M3625 685 c17 -84 59 -235 65 -235 6 0 2 30 -14 110 -7 37 -37 126
-47 140 -8 11 -9 8 -4 -15z"/>
<path d="M2610 671 c0 -12 5 -21 10 -21 6 0 10 6 10 14 0 8 -4 18 -10 21 -5 3
-10 -3 -10 -14z"/>
<path d="M1605 650 c-9 -17 -13 -40 -10 -50 5 -15 2 -20 -13 -20 -21 0 -58
-59 -50 -81 3 -8 1 -22 -4 -31 -13 -26 5 -22 21 5 34 53 91 171 91 188 0 29
-18 23 -35 -11z"/>
<path d="M3057 653 c-14 -14 -17 -15 -17 -3 0 13 -2 13 -10 0 -11 -16 -12
-235 -1 -225 7 7 8 14 10 52 2 38 8 26 15 -29 9 -65 15 -78 37 -78 30 0 41 44
44 168 2 100 0 114 -16 122 -26 14 -42 12 -62 -7z"/>
<path d="M2537 598 c-27 -108 -30 -124 -17 -112 6 6 13 24 16 39 3 16 7 32 10
37 7 11 17 98 12 98 -3 0 -12 -28 -21 -62z"/>
<path d="M4520 621 c0 -9 49 -103 83 -161 25 -42 39 -53 48 -38 4 6 12 7 19 3
14 -9 -38 95 -79 154 -26 39 -71 66 -71 42z"/>
<path d="M1714 598 c-48 -53 -104 -165 -104 -207 1 -25 1 -25 16 -6 25 34 116
215 112 226 -2 6 -13 0 -24 -13z"/>
<path d="M2870 529 c0 -59 4 -89 9 -80 10 16 9 157 -2 167 -4 4 -7 -35 -7 -87z"/>
<path d="M2594 578 c-4 -13 -9 -32 -10 -43 -2 -11 -5 -35 -8 -53 -3 -18 -1
-30 4 -27 9 5 14 26 25 108 5 41 0 49 -11 15z"/>
<path d="M3234 580 c0 -11 4 -20 8 -20 4 0 8 9 8 20 0 11 -4 20 -8 20 -4 0 -8
-9 -8 -20z"/>
<path d="M1756 518 c-30 -51 -76 -154 -76 -170 0 -20 37 37 75 117 21 44 40
83 42 88 2 4 0 7 -6 7 -6 0 -21 -19 -35 -42z"/>
<path d="M4450 544 c0 -14 73 -144 81 -144 5 0 4 12 -2 27 -27 71 -79 148 -79
117z"/>
<path d="M4311 503 c32 -86 119 -235 119 -206 0 18 -112 233 -121 233 -5 0 -4
-12 2 -27z"/>
<path d="M4200 464 c0 -23 58 -139 66 -131 2 2 -3 20 -11 40 -20 47 -55 105
-55 91z"/>
<path d="M4250 462 c0 -12 58 -123 71 -136 17 -18 9 6 -23 71 -30 61 -48 85
-48 65z"/>
<path d="M1941 423 c-25 -52 -37 -91 -22 -77 13 12 54 114 46 114 -2 0 -13
-17 -24 -37z"/>
<path d="M2001 390 c-18 -38 -31 -78 -29 -87 4 -18 53 74 69 129 14 52 -8 28
-40 -42z"/>
<path d="M3192 390 c0 -14 2 -19 5 -12 2 6 2 18 0 25 -3 6 -5 1 -5 -13z"/>
<path d="M4085 389 c19 -67 59 -161 76 -181 l20 -23 -7 25 c-11 43 -76 190
-86 196 -6 4 -7 -3 -3 -17z"/>
<path d="M2209 378 c-16 -30 -25 -168 -10 -168 27 0 68 119 57 165 -8 31 -31
33 -47 3z"/>
<path d="M3806 342 c-7 -12 1 -52 25 -137 21 -72 43 -115 58 -115 21 0 19 36
-5 113 -40 128 -61 165 -78 139z"/>
<path d="M3890 326 c0 -9 5 -16 10 -16 6 0 10 4 10 9 0 6 -4 13 -10 16 -5 3
-10 -1 -10 -9z"/>
<path d="M2361 254 c-22 -77 -29 -141 -11 -114 5 8 10 11 11 5 1 -18 38 94 44
138 5 35 4 44 -8 44 -10 0 -22 -25 -36 -73z"/>
<path d="M1885 286 c-9 -14 -15 -31 -13 -38 3 -7 12 2 22 20 21 41 14 54 -9
18z"/>
<path d="M2457 243 c-31 -110 -43 -193 -30 -193 16 0 44 114 58 228 5 43 -13
21 -28 -35z"/>
<path d="M2550 278 c0 -12 3 -18 7 -14 11 10 12 36 2 36 -5 0 -9 -10 -9 -22z"/>
<path d="M2592 283 c-10 -19 -19 -55 -28 -118 -3 -22 -7 -50 -9 -63 -3 -17 2
-25 18 -31 12 -5 25 -7 28 -5 3 2 4 31 2 64 -4 51 -3 60 12 60 14 0 16 9 13
52 -3 53 -20 72 -36 41z"/>
<path d="M3646 270 c4 -19 11 -44 15 -55 l8 -20 2 20 c3 36 -2 60 -17 75 -13
13 -14 10 -8 -20z"/>
<path d="M4280 283 c0 -19 11 -43 21 -43 13 0 11 14 -6 36 -8 10 -15 14 -15 7z"/>
<path d="M3485 197 c9 -103 28 -180 44 -185 17 -6 11 62 -16 183 -21 97 -38
98 -28 2z"/>
<path d="M3931 193 c18 -54 40 -93 35 -62 -6 35 -39 119 -46 119 -5 0 0 -26
11 -57z"/>
<path d="M2156 208 c-5 -24 -1 -36 13 -50 26 -24 31 -23 25 7 -5 30 -22 75
-28 75 -2 0 -6 -14 -10 -32z"/>
<path d="M2850 235 c-6 -27 -5 -84 1 -101 7 -18 8 -18 9 1 1 11 3 27 4 35 3
17 -11 80 -14 65z"/>
<path d="M3360 217 c0 -15 4 -27 8 -27 10 0 9 36 -1 46 -4 4 -7 -5 -7 -19z"/>
<path d="M2525 173 c-12 -48 -18 -118 -9 -110 4 4 9 15 11 25 1 9 6 38 11 65
10 50 -1 66 -13 20z"/>
<path d="M3105 126 c1 -89 11 -93 14 -6 1 38 -2 70 -6 70 -5 0 -8 -29 -8 -64z"/>
<path d="M3021 120 c-1 -27 2 -50 7 -50 4 0 8 23 8 50 0 28 -3 50 -6 50 -4 0
-8 -22 -9 -50z"/>
<path d="M3685 108 c9 -50 13 -60 25 -53 8 5 -17 95 -27 95 -3 0 -2 -19 2 -42z"/>
<path d="M3385 71 c-3 -5 -2 -12 3 -15 5 -3 9 1 9 9 0 17 -3 19 -12 6z"/>
<path d="M2820 43 c0 -5 5 -15 10 -23 8 -12 10 -11 10 8 0 12 -4 22 -10 22 -5
0 -10 -3 -10 -7z"/>
<path d="M3214 29 c-3 -6 -1 -16 5 -22 8 -8 11 -5 11 11 0 24 -5 28 -16 11z"/>
</g>
</svg>
